<svg xmlns="http://www.w3.org/2000/svg" xmlns:xlink="http://www.w3.org/1999/xlink" viewBox="0 0 257 257"><defs><linearGradient id="Degradado_sin_nombre_2" x1="89.98" y1="2832.31" x2="167.02" y2="2832.31" gradientTransform="translate(0 -2703.81)" gradientUnits="userSpaceOnUse"><stop offset="0" stop-color="#fff"/><stop offset="1" stop-color="#1e1e1c"/></linearGradient></defs><g id="Capa_2" data-name="Capa 2"><g id="Capa_1-2" data-name="Capa 1"><rect x="0.5" y="0.5" width="256" height="256" style="fill:#2e2d2c;stroke:#1d1d1b;stroke-miterlimit:10"/><path d="M116.83,148.7a9.78,9.78,0,0,1,0,19.56v40.4a50.16,50.16,0,0,0,40.23-80.16A50.19,50.19,0,0,1,116.83,148.7Z" style="fill:#ea5153"/><path d="M157.06,128.5a50.16,50.16,0,0,0-40.23-80.16v40.4a9.78,9.78,0,0,1,0,19.56A50.19,50.19,0,0,1,157.06,128.5Z" style="fill:#54b68d"/><path d="M157.06,128.5a50.19,50.19,0,0,0-40.23-20.2H90v40.4h26.85A50.19,50.19,0,0,0,157.06,128.5Z" style="fill:url(#Degradado_sin_nombre_2)"/><path d="M157.06,128.5a50.19,50.19,0,0,0-40.23-20.2H90v40.4h26.85A50.19,50.19,0,0,0,157.06,128.5Z" style="fill:#fdc804"/></g></g></svg>